<svg xmlns="http://www.w3.org/2000/svg" viewBox="0 0 1024 1024">
  <defs>
    <linearGradient id="g" x1="0" y1="0" x2="1" y2="1">
      <stop offset="0" stop-color="#2E6BFF"/><stop offset="1" stop-color="#A855F7"/>
    </linearGradient>
  </defs>
  <rect width="1024" height="1024" rx="200" fill="#05060B"/>
  <g transform="translate(80,90) scale(0.89)">
    <polygon fill="url(#g)" points="468.01 69.24 468.01 718.68 438.87 674.45 395.77 608.99 395.63 608.79 298.94 461.97 368.19 428.6 395.77 470.48 395.77 188.61 254.84 256.51 277.5 290.92 208.26 324.29 143.31 225.66 395.77 104.05 417.27 93.69 468.01 69.24"/>
    <polygon fill="#FFFFFF" points="714.57 256.51 662.9 334.83 662.96 334.89 708.61 404.09 665.36 469.74 619.71 400.54 619.62 400.44 573.65 470.13 573.65 608.99 501.4 718.68 501.4 69.24 573.65 104.05 573.65 338.94 576.35 334.83 619.65 269.22 648.9 224.88 691.24 160.69 756.89 192.31 714.57 256.51"/>
    <path fill="#FFFFFF" d="M484.71,0L62.57,203.36l422.13,640.93L906.84,203.36,484.71,0ZM103.72,214.73L484.71,31.2l380.99,183.54-380.99,578.46L103.72,214.73Z"/>
  </g>
</svg>
